<svg width="41" height="41" viewBox="0 0 41 41" fill="none" xmlns="http://www.w3.org/2000/svg">
<mask id="mask0_19_72" style="mask-type:alpha" maskUnits="userSpaceOnUse" x="0" y="0" width="41" height="41">
<rect width="41" height="41" fill="#D9D9D9"/>
</mask>
<g mask="url(#mask0_19_72)">
<path d="M13.8162 29.8331V10.8893C13.8162 10.5201 13.9407 10.2251 14.1899 10.0045C14.439 9.78379 14.7273 9.67346 15.0547 9.67346C15.1544 9.67346 15.2611 9.68414 15.375 9.70549C15.4889 9.72685 15.6004 9.76477 15.7096 9.81927L30.6005 19.3469C30.7856 19.4928 30.928 19.6467 31.0276 19.8087C31.1273 19.9706 31.1771 20.1584 31.1771 20.3719C31.1771 20.5854 31.1273 20.7732 31.0276 20.9351C30.928 21.0971 30.7856 21.2439 30.6005 21.3755L15.7096 30.9032C15.6004 30.9719 15.4889 31.017 15.375 31.0383C15.2611 31.0597 15.1577 31.0703 15.0649 31.0703C14.7307 31.0703 14.439 30.96 14.1899 30.7393C13.9407 30.5187 13.8162 30.2166 13.8162 29.8331Z" fill="#1C1B1F"/>
</g>
</svg>
