<svg width="41" height="41" viewBox="0 0 41 41" fill="none" xmlns="http://www.w3.org/2000/svg">
<mask id="mask0_19_24" style="mask-type:alpha" maskUnits="userSpaceOnUse" x="0" y="0" width="41" height="41">
<rect width="41" height="41" fill="#D9D9D9"/>
</mask>
<g mask="url(#mask0_19_24)">
<path d="M17.9803 35.4479C14.8484 34.8784 12.2396 33.3516 10.154 30.8674C8.06843 28.3832 7.02563 25.504 7.02563 22.2297C7.02563 20.2081 7.45984 18.2969 8.32824 16.4961C9.19664 14.6952 10.4209 13.1755 12.0012 11.937C12.2147 11.7804 12.4745 11.7127 12.7806 11.7341C13.0867 11.7554 13.3465 11.8729 13.56 12.0864C13.8305 12.3569 13.9515 12.6701 13.923 13.026C13.8946 13.3819 13.7095 13.6951 13.3678 13.9656C12.1293 14.9621 11.1719 16.1864 10.4957 17.6385C9.81947 19.0906 9.48136 20.621 9.48136 22.2297C9.48136 24.8918 10.3071 27.2123 11.9584 29.1911C13.6098 31.1699 15.7025 32.4298 18.2366 32.9708C18.5355 33.0277 18.7918 33.1772 19.0053 33.4192C19.2189 33.6613 19.3256 33.9389 19.3256 34.2521C19.3256 34.6364 19.1868 34.9461 18.9092 35.181C18.6316 35.4159 18.322 35.5048 17.9803 35.4479ZM23.1053 35.4479C22.7637 35.5048 22.4576 35.4159 22.1871 35.181C21.9166 34.9461 21.7814 34.6364 21.7814 34.2521C21.7814 33.9531 21.8846 33.6791 22.091 33.4299C22.2974 33.1808 22.5572 33.0277 22.8704 32.9708C25.4329 32.4298 27.5256 31.1699 29.1486 29.1911C30.7715 27.2123 31.5829 24.8918 31.5829 22.2297C31.5829 19.1547 30.5152 16.5459 28.3798 14.4034C26.2444 12.2608 23.6321 11.1896 20.5428 11.1896H19.6459L21.397 12.9406C21.6248 13.1684 21.7387 13.4567 21.7387 13.8054C21.7387 14.1542 21.6248 14.4354 21.397 14.6489C21.1407 14.9052 20.8382 15.0333 20.4894 15.0333C20.1407 15.0333 19.8595 14.9052 19.6459 14.6489L15.7595 10.8265C15.6171 10.6984 15.5175 10.5667 15.4605 10.4315C15.4036 10.2962 15.3751 10.1432 15.3751 9.97237C15.3751 9.80153 15.4036 9.6485 15.4605 9.51325C15.5175 9.37801 15.6171 9.24633 15.7595 9.1182L19.6459 5.23174C19.8595 5.00396 20.1407 4.89008 20.4894 4.89008C20.8382 4.89008 21.1407 5.00396 21.397 5.23174C21.6248 5.48799 21.7387 5.79051 21.7387 6.13929C21.7387 6.48808 21.6248 6.76924 21.397 6.98278L19.6459 8.73383H20.5428C24.3012 8.73383 27.49 10.0507 30.1095 12.6843C32.7289 15.318 34.0387 18.4998 34.0387 22.2297C34.0387 25.504 32.9994 28.3832 30.9209 30.8674C28.8425 33.3516 26.2373 34.8784 23.1053 35.4479Z" fill="#1C1B1F"/>
</g>
</svg>
