<svg width="41" height="41" viewBox="0 0 41 41" fill="none" xmlns="http://www.w3.org/2000/svg">
<mask id="mask0_19_42" style="mask-type:alpha" maskUnits="userSpaceOnUse" x="0" y="0" width="41" height="41">
<rect width="41" height="41" fill="#D9D9D9"/>
</mask>
<g mask="url(#mask0_19_42)">
<path d="M20.5427 34.1026C16.8413 34.1026 13.6631 32.7715 11.008 30.1094C8.35301 27.4472 7.02549 24.2583 7.02549 20.5427V18.5568L4.37757 21.2047C4.14979 21.4325 3.88643 21.5463 3.58747 21.5463C3.28851 21.5463 3.03226 21.4325 2.81872 21.2047C2.59094 20.9911 2.47705 20.7278 2.47705 20.4146C2.47705 20.1014 2.59094 19.8309 2.81872 19.6031L7.40986 14.9906C7.65188 14.7486 7.9366 14.6276 8.26403 14.6276C8.59146 14.6276 8.8833 14.7486 9.13955 14.9906L13.7521 19.6031C13.9656 19.8309 14.0724 20.0943 14.0724 20.3932C14.0724 20.6922 13.9656 20.9484 13.7521 21.162C13.5243 21.3897 13.2538 21.5036 12.9406 21.5036C12.6274 21.5036 12.364 21.3897 12.1505 21.162L9.48122 18.5568V20.5427C9.48122 23.6035 10.5667 26.2193 12.7377 28.3904C14.9087 30.5614 17.5104 31.6469 20.5427 31.6469C21.1121 31.6469 21.6673 31.6113 22.2083 31.5401C22.7493 31.4689 23.2689 31.3621 23.7672 31.2198C24.0804 31.1344 24.3971 31.1522 24.7174 31.2732C25.0377 31.3942 25.2619 31.6113 25.3901 31.9245C25.5182 32.2234 25.5146 32.5224 25.3794 32.8213C25.2442 33.1203 25.0128 33.3196 24.6854 33.4193C24.0021 33.647 23.3187 33.8179 22.6354 33.9318C21.9521 34.0457 21.2545 34.1026 20.5427 34.1026ZM20.5 9.48124C19.9305 9.48124 19.3753 9.51683 18.8343 9.58801C18.2934 9.65919 17.7809 9.76596 17.2968 9.90833C16.9694 9.99374 16.642 9.97595 16.3146 9.85494C15.9871 9.73393 15.7593 9.51683 15.6312 9.20364C15.4889 8.89044 15.4853 8.58081 15.6205 8.27473C15.7558 7.96866 15.9729 7.75867 16.2718 7.64478C16.9694 7.41701 17.667 7.25685 18.3646 7.16431C19.0621 7.07178 19.7739 7.02551 20.5 7.02551C24.2014 7.02551 27.3796 8.35659 30.0346 11.0187C32.6896 13.6809 34.0172 16.8698 34.0172 20.5854V22.4859L36.6864 19.8167C36.9 19.6031 37.1562 19.4963 37.4552 19.4963C37.7541 19.4963 38.0175 19.6031 38.2453 19.8167C38.4588 20.0444 38.5656 20.3149 38.5656 20.6281C38.5656 20.9413 38.4588 21.2047 38.2453 21.4182L33.6541 26.0521C33.3979 26.2941 33.106 26.4151 32.7786 26.4151C32.4512 26.4151 32.1665 26.287 31.9244 26.0307L27.3547 21.4609C27.1269 21.2474 27.013 20.9769 27.013 20.6495C27.013 20.322 27.1269 20.0444 27.3547 19.8167C27.5682 19.6031 27.8387 19.4963 28.1661 19.4963C28.4935 19.4963 28.7711 19.6031 28.9989 19.8167L31.5614 22.4005V20.5854C31.5614 17.5246 30.4759 14.9088 28.3049 12.7378C26.1339 10.5667 23.5323 9.48124 20.5 9.48124Z" fill="#1C1B1F"/>
</g>
</svg>
